<?xml version="1.0" encoding="UTF-8" standalone="no"?>
<!DOCTYPE svg PUBLIC "-//W3C//DTD SVG 1.1//EN"
 "http://www.w3.org/Graphics/SVG/1.1/DTD/svg11.dtd">
<!-- Generated by graphviz version 2.40.1 (20161225.0304)
 -->
<!-- Title: models_diagram Pages: 1 -->
<svg width="1186pt" height="347pt"
 viewBox="0.00 0.00 1185.55 347.00" xmlns="http://www.w3.org/2000/svg" xmlns:xlink="http://www.w3.org/1999/xlink">
<g id="graph0" class="graph" transform="scale(1 1) rotate(0) translate(4 343)">
<title>models_diagram</title>
<polygon fill="transparent" stroke="transparent" points="-4,4 -4,-343 1181.55,-343 1181.55,4 -4,4"/>
<!-- _diagram_info -->
<g id="node1" class="node">
<title>_diagram_info</title>
<text text-anchor="start" x="8" y="-303.6" font-family="Times,serif" font-size="13.00" fill="#000000">Models diagram</text>
<text text-anchor="start" x="8" y="-290.6" font-family="Times,serif" font-size="13.00" fill="#000000">Date: Apr 18 2017 &#45; 21:16</text>
<text text-anchor="start" x="8" y="-277.6" font-family="Times,serif" font-size="13.00" fill="#000000">Migration version: 20170419013102</text>
<text text-anchor="start" x="8" y="-264.6" font-family="Times,serif" font-size="13.00" fill="#000000">Generated by RailRoady 1.5.2</text>
<text text-anchor="start" x="8" y="-251.6" font-family="Times,serif" font-size="13.00" fill="#000000">http://railroady.prestonlee.com</text>
</g>
<!-- ApplicationRecord -->
<g id="node2" class="node">
<title>ApplicationRecord</title>
<ellipse fill="none" stroke="#000000" cx="302.6877" cy="-281.5" rx="77.2916" ry="18"/>
<text text-anchor="middle" x="302.6877" y="-277.3" font-family="Times,serif" font-size="14.00" fill="#000000">ApplicationRecord</text>
</g>
<!-- Category -->
<g id="node3" class="node">
<title>Category</title>
<path fill="none" stroke="#000000" d="M409.8254,-238.5C409.8254,-238.5 633.55,-238.5 633.55,-238.5 639.55,-238.5 645.55,-244.5 645.55,-250.5 645.55,-250.5 645.55,-312.5 645.55,-312.5 645.55,-318.5 639.55,-324.5 633.55,-324.5 633.55,-324.5 409.8254,-324.5 409.8254,-324.5 403.8254,-324.5 397.8254,-318.5 397.8254,-312.5 397.8254,-312.5 397.8254,-250.5 397.8254,-250.5 397.8254,-244.5 403.8254,-238.5 409.8254,-238.5"/>
<text text-anchor="middle" x="521.6877" y="-309.3" font-family="Times,serif" font-size="14.00" fill="#000000">Category</text>
<polyline fill="none" stroke="#000000" points="397.8254,-302.5 645.55,-302.5 "/>
<text text-anchor="start" x="405.8254" y="-287.3" font-family="Times,serif" font-size="14.00" fill="#000000">id :integer</text>
<text text-anchor="start" x="405.8254" y="-273.3" font-family="Times,serif" font-size="14.00" fill="#000000">name :character varying</text>
<text text-anchor="start" x="405.8254" y="-259.3" font-family="Times,serif" font-size="14.00" fill="#000000">created_at :timestamp without time zone</text>
<text text-anchor="start" x="405.8254" y="-245.3" font-family="Times,serif" font-size="14.00" fill="#000000">updated_at :timestamp without time zone</text>
</g>
<!-- Inventory -->
<g id="node4" class="node">
<title>Inventory</title>
<path fill="none" stroke="#000000" d="M675.8254,-224.5C675.8254,-224.5 899.55,-224.5 899.55,-224.5 905.55,-224.5 911.55,-230.5 911.55,-236.5 911.55,-236.5 911.55,-326.5 911.55,-326.5 911.55,-332.5 905.55,-338.5 899.55,-338.5 899.55,-338.5 675.8254,-338.5 675.8254,-338.5 669.8254,-338.5 663.8254,-332.5 663.8254,-326.5 663.8254,-326.5 663.8254,-236.5 663.8254,-236.5 663.8254,-230.5 669.8254,-224.5 675.8254,-224.5"/>
<text text-anchor="middle" x="787.6877" y="-323.3" font-family="Times,serif" font-size="14.00" fill="#000000">Inventory</text>
<polyline fill="none" stroke="#000000" points="663.8254,-316.5 911.55,-316.5 "/>
<text text-anchor="start" x="671.8254" y="-301.3" font-family="Times,serif" font-size="14.00" fill="#000000">id :integer</text>
<text text-anchor="start" x="671.8254" y="-287.3" font-family="Times,serif" font-size="14.00" fill="#000000">created_at :timestamp without time zone</text>
<text text-anchor="start" x="671.8254" y="-273.3" font-family="Times,serif" font-size="14.00" fill="#000000">updated_at :timestamp without time zone</text>
<text text-anchor="start" x="671.8254" y="-259.3" font-family="Times,serif" font-size="14.00" fill="#000000">serie :integer</text>
<text text-anchor="start" x="671.8254" y="-245.3" font-family="Times,serif" font-size="14.00" fill="#000000">description :character varying</text>
<text text-anchor="start" x="671.8254" y="-231.3" font-family="Times,serif" font-size="14.00" fill="#000000">category_id :integer</text>
</g>
<!-- User -->
<g id="node5" class="node">
<title>User</title>
<path fill="none" stroke="#000000" d="M941.8254,-86.5C941.8254,-86.5 1165.55,-86.5 1165.55,-86.5 1171.55,-86.5 1177.55,-92.5 1177.55,-98.5 1177.55,-98.5 1177.55,-174.5 1177.55,-174.5 1177.55,-180.5 1171.55,-186.5 1165.55,-186.5 1165.55,-186.5 941.8254,-186.5 941.8254,-186.5 935.8254,-186.5 929.8254,-180.5 929.8254,-174.5 929.8254,-174.5 929.8254,-98.5 929.8254,-98.5 929.8254,-92.5 935.8254,-86.5 941.8254,-86.5"/>
<text text-anchor="middle" x="1053.6877" y="-171.3" font-family="Times,serif" font-size="14.00" fill="#000000">User</text>
<polyline fill="none" stroke="#000000" points="929.8254,-164.5 1177.55,-164.5 "/>
<text text-anchor="start" x="937.8254" y="-149.3" font-family="Times,serif" font-size="14.00" fill="#000000">id :integer</text>
<text text-anchor="start" x="937.8254" y="-135.3" font-family="Times,serif" font-size="14.00" fill="#000000">name :character varying</text>
<text text-anchor="start" x="937.8254" y="-121.3" font-family="Times,serif" font-size="14.00" fill="#000000">email :character varying</text>
<text text-anchor="start" x="937.8254" y="-107.3" font-family="Times,serif" font-size="14.00" fill="#000000">created_at :timestamp without time zone</text>
<text text-anchor="start" x="937.8254" y="-93.3" font-family="Times,serif" font-size="14.00" fill="#000000">updated_at :timestamp without time zone</text>
</g>
<!-- Works -->
<g id="node7" class="node">
<title>Works</title>
<ellipse fill="none" stroke="#000000" cx="1053.6877" cy="-18" rx="32.9596" ry="18"/>
<text text-anchor="middle" x="1053.6877" y="-13.8" font-family="Times,serif" font-size="14.00" fill="#000000">Works</text>
</g>
<!-- User&#45;&gt;Works -->
<g id="edge1" class="edge">
<title>User&#45;&gt;Works</title>
<path fill="none" stroke="#44b519" d="M1053.6877,-77.851C1053.6877,-66.1219 1053.6877,-54.3613 1053.6877,-44.4082"/>
<ellipse fill="none" stroke="#44b519" cx="1053.6878" cy="-82.2453" rx="4" ry="4"/>
<ellipse fill="#44b519" stroke="#44b519" cx="1053.6878" cy="-40.173" rx="4" ry="4"/>
<text text-anchor="middle" x="1070.7981" y="-56.8" font-family="Times,serif" font-size="14.00" fill="#000000">works</text>
</g>
<!-- Work -->
<g id="node6" class="node">
<title>Work</title>
<path fill="none" stroke="#000000" d="M941.8254,-245.5C941.8254,-245.5 1165.55,-245.5 1165.55,-245.5 1171.55,-245.5 1177.55,-251.5 1177.55,-257.5 1177.55,-257.5 1177.55,-305.5 1177.55,-305.5 1177.55,-311.5 1171.55,-317.5 1165.55,-317.5 1165.55,-317.5 941.8254,-317.5 941.8254,-317.5 935.8254,-317.5 929.8254,-311.5 929.8254,-305.5 929.8254,-305.5 929.8254,-257.5 929.8254,-257.5 929.8254,-251.5 935.8254,-245.5 941.8254,-245.5"/>
<text text-anchor="middle" x="1053.6877" y="-302.3" font-family="Times,serif" font-size="14.00" fill="#000000">Work</text>
<polyline fill="none" stroke="#000000" points="929.8254,-295.5 1177.55,-295.5 "/>
<text text-anchor="start" x="937.8254" y="-280.3" font-family="Times,serif" font-size="14.00" fill="#000000">id :integer</text>
<text text-anchor="start" x="937.8254" y="-266.3" font-family="Times,serif" font-size="14.00" fill="#000000">created_at :timestamp without time zone</text>
<text text-anchor="start" x="937.8254" y="-252.3" font-family="Times,serif" font-size="14.00" fill="#000000">updated_at :timestamp without time zone</text>
</g>
<!-- Work&#45;&gt;User -->
<g id="edge2" class="edge">
<title>Work&#45;&gt;User</title>
<path fill="none" stroke="#b8fbdd" d="M1053.6877,-237.1661C1053.6877,-224.4653 1053.6877,-210.399 1053.6877,-196.9075"/>
<ellipse fill="none" stroke="#b8fbdd" cx="1053.6878" cy="-241.2844" rx="4" ry="4"/>
<polygon fill="#b8fbdd" stroke="#b8fbdd" points="1053.6878,-196.7348 1058.1877,-186.7347 1053.6878,-191.7348 1053.6877,-186.7348 1053.6877,-186.7348 1053.6877,-186.7348 1053.6878,-191.7348 1049.1877,-186.7348 1053.6878,-196.7348 1053.6878,-196.7348"/>
</g>
</g>
</svg>
