<?xml version="1.0" encoding="UTF-8" standalone="no"?>
<!DOCTYPE svg PUBLIC "-//W3C//DTD SVG 1.1//EN"
 "http://www.w3.org/Graphics/SVG/1.1/DTD/svg11.dtd">
<!-- Generated by graphviz version 2.40.1 (20161225.0304)
 -->
<!-- Title: models_diagram Pages: 1 -->
<svg width="1186pt" height="274pt"
 viewBox="0.00 0.00 1185.55 274.00" xmlns="http://www.w3.org/2000/svg" xmlns:xlink="http://www.w3.org/1999/xlink">
<g id="graph0" class="graph" transform="scale(1 1) rotate(0) translate(4 270)">
<title>models_diagram</title>
<polygon fill="transparent" stroke="transparent" points="-4,4 -4,-270 1181.55,-270 1181.55,4 -4,4"/>
<!-- _diagram_info -->
<g id="node1" class="node">
<title>_diagram_info</title>
<text text-anchor="start" x="8" y="-237.6" font-family="Times,serif" font-size="13.00" fill="#000000">Models diagram</text>
<text text-anchor="start" x="8" y="-224.6" font-family="Times,serif" font-size="13.00" fill="#000000">Date: Apr 18 2017 &#45; 21:42</text>
<text text-anchor="start" x="8" y="-211.6" font-family="Times,serif" font-size="13.00" fill="#000000">Migration version: 20170419013102</text>
<text text-anchor="start" x="8" y="-198.6" font-family="Times,serif" font-size="13.00" fill="#000000">Generated by RailRoady 1.5.2</text>
<text text-anchor="start" x="8" y="-185.6" font-family="Times,serif" font-size="13.00" fill="#000000">http://railroady.prestonlee.com</text>
</g>
<!-- ApplicationRecord -->
<g id="node2" class="node">
<title>ApplicationRecord</title>
<ellipse fill="none" stroke="#000000" cx="302.6877" cy="-215.5" rx="77.2916" ry="18"/>
<text text-anchor="middle" x="302.6877" y="-211.3" font-family="Times,serif" font-size="14.00" fill="#000000">ApplicationRecord</text>
</g>
<!-- Category -->
<g id="node3" class="node">
<title>Category</title>
<path fill="none" stroke="#000000" d="M409.8254,-172.5C409.8254,-172.5 633.55,-172.5 633.55,-172.5 639.55,-172.5 645.55,-178.5 645.55,-184.5 645.55,-184.5 645.55,-246.5 645.55,-246.5 645.55,-252.5 639.55,-258.5 633.55,-258.5 633.55,-258.5 409.8254,-258.5 409.8254,-258.5 403.8254,-258.5 397.8254,-252.5 397.8254,-246.5 397.8254,-246.5 397.8254,-184.5 397.8254,-184.5 397.8254,-178.5 403.8254,-172.5 409.8254,-172.5"/>
<text text-anchor="middle" x="521.6877" y="-243.3" font-family="Times,serif" font-size="14.00" fill="#000000">Category</text>
<polyline fill="none" stroke="#000000" points="397.8254,-236.5 645.55,-236.5 "/>
<text text-anchor="start" x="405.8254" y="-221.3" font-family="Times,serif" font-size="14.00" fill="#000000">id :integer</text>
<text text-anchor="start" x="405.8254" y="-207.3" font-family="Times,serif" font-size="14.00" fill="#000000">name :character varying</text>
<text text-anchor="start" x="405.8254" y="-193.3" font-family="Times,serif" font-size="14.00" fill="#000000">created_at :timestamp without time zone</text>
<text text-anchor="start" x="405.8254" y="-179.3" font-family="Times,serif" font-size="14.00" fill="#000000">updated_at :timestamp without time zone</text>
</g>
<!-- Inventory -->
<g id="node4" class="node">
<title>Inventory</title>
<path fill="none" stroke="#000000" d="M409.8254,-.5C409.8254,-.5 633.55,-.5 633.55,-.5 639.55,-.5 645.55,-6.5 645.55,-12.5 645.55,-12.5 645.55,-102.5 645.55,-102.5 645.55,-108.5 639.55,-114.5 633.55,-114.5 633.55,-114.5 409.8254,-114.5 409.8254,-114.5 403.8254,-114.5 397.8254,-108.5 397.8254,-102.5 397.8254,-102.5 397.8254,-12.5 397.8254,-12.5 397.8254,-6.5 403.8254,-.5 409.8254,-.5"/>
<text text-anchor="middle" x="521.6877" y="-99.3" font-family="Times,serif" font-size="14.00" fill="#000000">Inventory</text>
<polyline fill="none" stroke="#000000" points="397.8254,-92.5 645.55,-92.5 "/>
<text text-anchor="start" x="405.8254" y="-77.3" font-family="Times,serif" font-size="14.00" fill="#000000">id :integer</text>
<text text-anchor="start" x="405.8254" y="-63.3" font-family="Times,serif" font-size="14.00" fill="#000000">created_at :timestamp without time zone</text>
<text text-anchor="start" x="405.8254" y="-49.3" font-family="Times,serif" font-size="14.00" fill="#000000">updated_at :timestamp without time zone</text>
<text text-anchor="start" x="405.8254" y="-35.3" font-family="Times,serif" font-size="14.00" fill="#000000">serie :integer</text>
<text text-anchor="start" x="405.8254" y="-21.3" font-family="Times,serif" font-size="14.00" fill="#000000">description :character varying</text>
<text text-anchor="start" x="405.8254" y="-7.3" font-family="Times,serif" font-size="14.00" fill="#000000">category_id :integer</text>
</g>
<!-- Category&#45;&gt;Inventory -->
<g id="edge1" class="edge">
<title>Category&#45;&gt;Inventory</title>
<path fill="none" stroke="#941ede" d="M521.6877,-164.204C521.6877,-151.566 521.6877,-137.8449 521.6877,-124.5825"/>
<ellipse fill="none" stroke="#941ede" cx="521.6878" cy="-168.3258" rx="4" ry="4"/>
<polygon fill="#941ede" stroke="#941ede" points="521.6878,-124.5556 526.1877,-114.5555 521.6878,-119.5556 521.6877,-114.5556 521.6877,-114.5556 521.6877,-114.5556 521.6878,-119.5556 517.1877,-114.5556 521.6878,-124.5556 521.6878,-124.5556"/>
</g>
<!-- User -->
<g id="node5" class="node">
<title>User</title>
<path fill="none" stroke="#000000" d="M675.8254,-165.5C675.8254,-165.5 899.55,-165.5 899.55,-165.5 905.55,-165.5 911.55,-171.5 911.55,-177.5 911.55,-177.5 911.55,-253.5 911.55,-253.5 911.55,-259.5 905.55,-265.5 899.55,-265.5 899.55,-265.5 675.8254,-265.5 675.8254,-265.5 669.8254,-265.5 663.8254,-259.5 663.8254,-253.5 663.8254,-253.5 663.8254,-177.5 663.8254,-177.5 663.8254,-171.5 669.8254,-165.5 675.8254,-165.5"/>
<text text-anchor="middle" x="787.6877" y="-250.3" font-family="Times,serif" font-size="14.00" fill="#000000">User</text>
<polyline fill="none" stroke="#000000" points="663.8254,-243.5 911.55,-243.5 "/>
<text text-anchor="start" x="671.8254" y="-228.3" font-family="Times,serif" font-size="14.00" fill="#000000">id :integer</text>
<text text-anchor="start" x="671.8254" y="-214.3" font-family="Times,serif" font-size="14.00" fill="#000000">name :character varying</text>
<text text-anchor="start" x="671.8254" y="-200.3" font-family="Times,serif" font-size="14.00" fill="#000000">email :character varying</text>
<text text-anchor="start" x="671.8254" y="-186.3" font-family="Times,serif" font-size="14.00" fill="#000000">created_at :timestamp without time zone</text>
<text text-anchor="start" x="671.8254" y="-172.3" font-family="Times,serif" font-size="14.00" fill="#000000">updated_at :timestamp without time zone</text>
</g>
<!-- Works -->
<g id="node7" class="node">
<title>Works</title>
<ellipse fill="none" stroke="#000000" cx="787.6877" cy="-57.5" rx="32.9596" ry="18"/>
<text text-anchor="middle" x="787.6877" y="-53.3" font-family="Times,serif" font-size="14.00" fill="#000000">Works</text>
</g>
<!-- User&#45;&gt;Works -->
<g id="edge2" class="edge">
<title>User&#45;&gt;Works</title>
<path fill="none" stroke="#db7e69" d="M787.6877,-157.0718C787.6877,-131.883 787.6877,-103.6951 787.6877,-83.7578"/>
<ellipse fill="none" stroke="#db7e69" cx="787.6878" cy="-161.0734" rx="4" ry="4"/>
<ellipse fill="#db7e69" stroke="#db7e69" cx="787.6878" cy="-79.7512" rx="4" ry="4"/>
<text text-anchor="middle" x="804.7981" y="-135.8" font-family="Times,serif" font-size="14.00" fill="#000000">works</text>
</g>
<!-- Work -->
<g id="node6" class="node">
<title>Work</title>
<path fill="none" stroke="#000000" d="M941.8254,-179.5C941.8254,-179.5 1165.55,-179.5 1165.55,-179.5 1171.55,-179.5 1177.55,-185.5 1177.55,-191.5 1177.55,-191.5 1177.55,-239.5 1177.55,-239.5 1177.55,-245.5 1171.55,-251.5 1165.55,-251.5 1165.55,-251.5 941.8254,-251.5 941.8254,-251.5 935.8254,-251.5 929.8254,-245.5 929.8254,-239.5 929.8254,-239.5 929.8254,-191.5 929.8254,-191.5 929.8254,-185.5 935.8254,-179.5 941.8254,-179.5"/>
<text text-anchor="middle" x="1053.6877" y="-236.3" font-family="Times,serif" font-size="14.00" fill="#000000">Work</text>
<polyline fill="none" stroke="#000000" points="929.8254,-229.5 1177.55,-229.5 "/>
<text text-anchor="start" x="937.8254" y="-214.3" font-family="Times,serif" font-size="14.00" fill="#000000">id :integer</text>
<text text-anchor="start" x="937.8254" y="-200.3" font-family="Times,serif" font-size="14.00" fill="#000000">created_at :timestamp without time zone</text>
<text text-anchor="start" x="937.8254" y="-186.3" font-family="Times,serif" font-size="14.00" fill="#000000">updated_at :timestamp without time zone</text>
</g>
<!-- Users -->
<g id="node8" class="node">
<title>Users</title>
<ellipse fill="none" stroke="#000000" cx="1053.6877" cy="-57.5" rx="30.4949" ry="18"/>
<text text-anchor="middle" x="1053.6877" y="-53.3" font-family="Times,serif" font-size="14.00" fill="#000000">Users</text>
</g>
<!-- Work&#45;&gt;Users -->
<g id="edge3" class="edge">
<title>Work&#45;&gt;Users</title>
<path fill="none" stroke="#160c4d" d="M1053.6877,-171.0589C1053.6877,-143.0543 1053.6877,-107.8335 1053.6877,-84.102"/>
<ellipse fill="none" stroke="#160c4d" cx="1053.6878" cy="-175.2516" rx="4" ry="4"/>
<ellipse fill="#160c4d" stroke="#160c4d" cx="1053.6878" cy="-79.9132" rx="4" ry="4"/>
<text text-anchor="middle" x="1068.074" y="-135.8" font-family="Times,serif" font-size="14.00" fill="#000000">users</text>
</g>
</g>
</svg>
