<?xml version="1.0" encoding="UTF-8" standalone="no"?>
<!DOCTYPE svg PUBLIC "-//W3C//DTD SVG 1.1//EN"
 "http://www.w3.org/Graphics/SVG/1.1/DTD/svg11.dtd">
<!-- Generated by graphviz version 2.40.1 (20161225.0304)
 -->
<!-- Title: models_diagram Pages: 1 -->
<svg width="680pt" height="240pt"
 viewBox="0.00 0.00 679.91 240.00" xmlns="http://www.w3.org/2000/svg" xmlns:xlink="http://www.w3.org/1999/xlink">
<g id="graph0" class="graph" transform="scale(1 1) rotate(0) translate(4 236)">
<title>models_diagram</title>
<polygon fill="transparent" stroke="transparent" points="-4,4 -4,-236 675.9084,-236 675.9084,4 -4,4"/>
<!-- _diagram_info -->
<g id="node1" class="node">
<title>_diagram_info</title>
<text text-anchor="start" x="8" y="-217.6" font-family="Times,serif" font-size="13.00" fill="#000000">Models diagram</text>
<text text-anchor="start" x="8" y="-204.6" font-family="Times,serif" font-size="13.00" fill="#000000">Date: Apr 18 2017 &#45; 21:16</text>
<text text-anchor="start" x="8" y="-191.6" font-family="Times,serif" font-size="13.00" fill="#000000">Migration version: 20170419013102</text>
<text text-anchor="start" x="8" y="-178.6" font-family="Times,serif" font-size="13.00" fill="#000000">Generated by RailRoady 1.5.2</text>
<text text-anchor="start" x="8" y="-165.6" font-family="Times,serif" font-size="13.00" fill="#000000">http://railroady.prestonlee.com</text>
</g>
<!-- ApplicationRecord -->
<g id="node2" class="node">
<title>ApplicationRecord</title>
<ellipse fill="none" stroke="#000000" cx="302.6877" cy="-195.5" rx="77.2916" ry="18"/>
<text text-anchor="middle" x="302.6877" y="-191.3" font-family="Times,serif" font-size="14.00" fill="#000000">ApplicationRecord</text>
</g>
<!-- Category -->
<g id="node3" class="node">
<title>Category</title>
<ellipse fill="none" stroke="#000000" cx="440.6877" cy="-195.5" rx="42.5456" ry="18"/>
<text text-anchor="middle" x="440.6877" y="-191.3" font-family="Times,serif" font-size="14.00" fill="#000000">Category</text>
</g>
<!-- Inventory -->
<g id="node4" class="node">
<title>Inventory</title>
<ellipse fill="none" stroke="#000000" cx="545.6877" cy="-195.5" rx="44.475" ry="18"/>
<text text-anchor="middle" x="545.6877" y="-191.3" font-family="Times,serif" font-size="14.00" fill="#000000">Inventory</text>
</g>
<!-- User -->
<g id="node5" class="node">
<title>User</title>
<ellipse fill="none" stroke="#000000" cx="637.6877" cy="-104" rx="27" ry="18"/>
<text text-anchor="middle" x="637.6877" y="-99.8" font-family="Times,serif" font-size="14.00" fill="#000000">User</text>
</g>
<!-- Works -->
<g id="node7" class="node">
<title>Works</title>
<ellipse fill="none" stroke="#000000" cx="637.6877" cy="-18" rx="32.9596" ry="18"/>
<text text-anchor="middle" x="637.6877" y="-13.8" font-family="Times,serif" font-size="14.00" fill="#000000">Works</text>
</g>
<!-- User&#45;&gt;Works -->
<g id="edge1" class="edge">
<title>User&#45;&gt;Works</title>
<path fill="none" stroke="#0d7a68" d="M637.6877,-77.4021C637.6877,-66.854 637.6877,-54.7569 637.6877,-44.2439"/>
<ellipse fill="none" stroke="#0d7a68" cx="637.6878" cy="-81.7616" rx="4" ry="4"/>
<ellipse fill="#0d7a68" stroke="#0d7a68" cx="637.6878" cy="-40.2121" rx="4" ry="4"/>
<text text-anchor="middle" x="654.7981" y="-56.8" font-family="Times,serif" font-size="14.00" fill="#000000">works</text>
</g>
<!-- Work -->
<g id="node6" class="node">
<title>Work</title>
<ellipse fill="none" stroke="#000000" cx="637.6877" cy="-195.5" rx="29.5766" ry="18"/>
<text text-anchor="middle" x="637.6877" y="-191.3" font-family="Times,serif" font-size="14.00" fill="#000000">Work</text>
</g>
<!-- Work&#45;&gt;User -->
<g id="edge2" class="edge">
<title>Work&#45;&gt;User</title>
<path fill="none" stroke="#a926e5" d="M637.6877,-169.0044C637.6877,-157.4617 637.6877,-143.9188 637.6877,-132.1908"/>
<ellipse fill="none" stroke="#a926e5" cx="637.6878" cy="-173.4225" rx="4" ry="4"/>
<polygon fill="#a926e5" stroke="#a926e5" points="637.6878,-132.0399 642.1877,-122.0399 637.6878,-127.0399 637.6877,-122.0399 637.6877,-122.0399 637.6877,-122.0399 637.6878,-127.0399 633.1877,-122.0399 637.6878,-132.0399 637.6878,-132.0399"/>
</g>
</g>
</svg>
