<?xml version="1.0" encoding="UTF-8" standalone="no"?>
<!DOCTYPE svg PUBLIC "-//W3C//DTD SVG 1.1//EN"
 "http://www.w3.org/Graphics/SVG/1.1/DTD/svg11.dtd">
<!-- Generated by graphviz version 2.40.1 (20161225.0304)
 -->
<!-- Title: models_diagram Pages: 1 -->
<svg width="655pt" height="167pt"
 viewBox="0.00 0.00 654.93 167.00" xmlns="http://www.w3.org/2000/svg" xmlns:xlink="http://www.w3.org/1999/xlink">
<g id="graph0" class="graph" transform="scale(1 1) rotate(0) translate(4 163)">
<title>models_diagram</title>
<polygon fill="transparent" stroke="transparent" points="-4,4 -4,-163 650.9342,-163 650.9342,4 -4,4"/>
<!-- _diagram_info -->
<g id="node1" class="node">
<title>_diagram_info</title>
<text text-anchor="start" x="8" y="-144.6" font-family="Times,serif" font-size="13.00" fill="#000000">Models diagram</text>
<text text-anchor="start" x="8" y="-131.6" font-family="Times,serif" font-size="13.00" fill="#000000">Date: Apr 18 2017 &#45; 21:42</text>
<text text-anchor="start" x="8" y="-118.6" font-family="Times,serif" font-size="13.00" fill="#000000">Migration version: 20170419013102</text>
<text text-anchor="start" x="8" y="-105.6" font-family="Times,serif" font-size="13.00" fill="#000000">Generated by RailRoady 1.5.2</text>
<text text-anchor="start" x="8" y="-92.6" font-family="Times,serif" font-size="13.00" fill="#000000">http://railroady.prestonlee.com</text>
</g>
<!-- ApplicationRecord -->
<g id="node2" class="node">
<title>ApplicationRecord</title>
<ellipse fill="none" stroke="#000000" cx="302.6877" cy="-122.5" rx="77.2916" ry="18"/>
<text text-anchor="middle" x="302.6877" y="-118.3" font-family="Times,serif" font-size="14.00" fill="#000000">ApplicationRecord</text>
</g>
<!-- Category -->
<g id="node3" class="node">
<title>Category</title>
<ellipse fill="none" stroke="#000000" cx="440.6877" cy="-122.5" rx="42.5456" ry="18"/>
<text text-anchor="middle" x="440.6877" y="-118.3" font-family="Times,serif" font-size="14.00" fill="#000000">Category</text>
</g>
<!-- Inventory -->
<g id="node4" class="node">
<title>Inventory</title>
<ellipse fill="none" stroke="#000000" cx="440.6877" cy="-18" rx="44.475" ry="18"/>
<text text-anchor="middle" x="440.6877" y="-13.8" font-family="Times,serif" font-size="14.00" fill="#000000">Inventory</text>
</g>
<!-- Category&#45;&gt;Inventory -->
<g id="edge1" class="edge">
<title>Category&#45;&gt;Inventory</title>
<path fill="none" stroke="#a93ed0" d="M440.6877,-96.1853C440.6877,-81.0145 440.6877,-61.9357 440.6877,-46.4227"/>
<ellipse fill="none" stroke="#a93ed0" cx="440.6878" cy="-100.2975" rx="4" ry="4"/>
<polygon fill="#a93ed0" stroke="#a93ed0" points="440.6878,-46.3445 445.1877,-36.3445 440.6878,-41.3445 440.6877,-36.3445 440.6877,-36.3445 440.6877,-36.3445 440.6878,-41.3445 436.1877,-36.3446 440.6878,-46.3445 440.6878,-46.3445"/>
</g>
<!-- User -->
<g id="node5" class="node">
<title>User</title>
<ellipse fill="none" stroke="#000000" cx="535.6877" cy="-122.5" rx="27" ry="18"/>
<text text-anchor="middle" x="535.6877" y="-118.3" font-family="Times,serif" font-size="14.00" fill="#000000">User</text>
</g>
<!-- Works -->
<g id="node7" class="node">
<title>Works</title>
<ellipse fill="none" stroke="#000000" cx="535.6877" cy="-18" rx="32.9596" ry="18"/>
<text text-anchor="middle" x="535.6877" y="-13.8" font-family="Times,serif" font-size="14.00" fill="#000000">Works</text>
</g>
<!-- User&#45;&gt;Works -->
<g id="edge2" class="edge">
<title>User&#45;&gt;Works</title>
<path fill="none" stroke="#5321ec" d="M535.6877,-96.1853C535.6877,-80.4311 535.6877,-60.4623 535.6877,-44.649"/>
<ellipse fill="none" stroke="#5321ec" cx="535.6878" cy="-100.2975" rx="4" ry="4"/>
<ellipse fill="#5321ec" stroke="#5321ec" cx="535.6878" cy="-40.3445" rx="4" ry="4"/>
<text text-anchor="middle" x="552.7981" y="-56.8" font-family="Times,serif" font-size="14.00" fill="#000000">works</text>
</g>
<!-- Work -->
<g id="node6" class="node">
<title>Work</title>
<ellipse fill="none" stroke="#000000" cx="616.6877" cy="-122.5" rx="29.5766" ry="18"/>
<text text-anchor="middle" x="616.6877" y="-118.3" font-family="Times,serif" font-size="14.00" fill="#000000">Work</text>
</g>
<!-- Users -->
<g id="node8" class="node">
<title>Users</title>
<ellipse fill="none" stroke="#000000" cx="616.6877" cy="-18" rx="30.4949" ry="18"/>
<text text-anchor="middle" x="616.6877" y="-13.8" font-family="Times,serif" font-size="14.00" fill="#000000">Users</text>
</g>
<!-- Work&#45;&gt;Users -->
<g id="edge3" class="edge">
<title>Work&#45;&gt;Users</title>
<path fill="none" stroke="#7cf698" d="M616.6877,-96.1853C616.6877,-80.4311 616.6877,-60.4623 616.6877,-44.649"/>
<ellipse fill="none" stroke="#7cf698" cx="616.6878" cy="-100.2975" rx="4" ry="4"/>
<ellipse fill="#7cf698" stroke="#7cf698" cx="616.6878" cy="-40.3445" rx="4" ry="4"/>
<text text-anchor="middle" x="631.074" y="-56.8" font-family="Times,serif" font-size="14.00" fill="#000000">users</text>
</g>
</g>
</svg>
